<svg data-v-423bf9ae="" xmlns="http://www.w3.org/2000/svg" viewBox="0 0 276.8571551770588 60" class="font"><!----><!----><!----><g data-v-423bf9ae="" id="e93b9fb0-1f12-4ab9-a148-b54d5ae3ee57" fill="white" transform="matrix(4.285714577655423,0,0,4.285714577655423,-0.5999995979123582,-12.000000374657809)"><path d="M4.47 13.87L8.78 3.78L7.71 3.78L4.47 11.45L1.20 3.78L0.14 3.78ZM10.96 5.01C10.84 4.89 10.69 4.83 10.52 4.83C10.35 4.83 10.20 4.89 10.08 5.01C9.96 5.13 9.90 5.28 9.90 5.45C9.90 5.63 9.96 5.77 10.08 5.89C10.20 6.02 10.35 6.08 10.52 6.08C10.69 6.08 10.84 6.02 10.96 5.89C11.08 5.77 11.14 5.63 11.14 5.45C11.14 5.28 11.08 5.13 10.96 5.01ZM11.02 13.30L11.02 7.14L10.04 7.14L10.04 13.30ZM12.26 13.30L18.35 13.30L18.35 12.39L14.14 12.39L18.17 7.14L12.50 7.14L12.50 8.05L16.30 8.05ZM18.63 13.30L24.72 13.30L24.72 12.39L20.51 12.39L24.54 7.14L18.87 7.14L18.87 8.05L22.67 8.05ZM26.91 5.01C26.79 4.89 26.64 4.83 26.47 4.83C26.29 4.83 26.15 4.89 26.03 5.01C25.90 5.13 25.84 5.28 25.84 5.45C25.84 5.63 25.90 5.77 26.03 5.89C26.15 6.02 26.29 6.08 26.47 6.08C26.64 6.08 26.79 6.02 26.91 5.89C27.03 5.77 27.09 5.63 27.09 5.45C27.09 5.28 27.03 5.13 26.91 5.01ZM26.96 13.30L26.96 7.14L25.98 7.14L25.98 13.30ZM32.42 3.71L32.42 2.80L31.72 2.80C31.03 2.80 30.54 2.97 30.25 3.31C29.95 3.65 29.81 4.13 29.81 4.76L29.81 7.14L28.56 7.14L28.56 8.05L29.81 8.05L29.81 13.30L30.79 13.30L30.79 8.05L32.42 8.05L32.42 7.14L30.79 7.14L30.79 4.48C30.79 4.27 30.84 4.08 30.94 3.93C31.04 3.78 31.26 3.71 31.58 3.71ZM34.68 16.80L38.93 7.14L37.84 7.14L36.08 11.27L34.10 7.14L32.98 7.14L35.56 12.29L33.49 16.80ZM47.40 14.07L49.62 3.78L48.62 3.78L47.14 10.70L44.28 3.22L41.41 10.70L39.94 3.78L38.93 3.78L41.16 14.07L44.28 5.78ZM56.83 10.08C56.83 9.23 56.50 8.50 55.85 7.88C55.22 7.28 54.47 6.97 53.61 6.97C52.72 6.97 51.96 7.29 51.33 7.92C50.70 8.55 50.39 9.31 50.39 10.19C50.39 11.08 50.70 11.84 51.33 12.46C51.63 12.75 51.97 12.98 52.35 13.15C52.74 13.31 53.21 13.40 53.75 13.40C54.30 13.40 54.84 13.23 55.36 12.89C55.89 12.55 56.28 12.08 56.55 11.49L55.43 11.49C55.21 11.78 54.94 12.01 54.62 12.17C54.30 12.34 53.96 12.42 53.61 12.42C53.08 12.42 52.60 12.25 52.18 11.90C51.76 11.56 51.50 11.13 51.41 10.60L56.83 10.60ZM55.79 9.76L51.42 9.76C51.48 9.50 51.58 9.26 51.72 9.04C52.18 8.31 52.81 7.95 53.61 7.95C54.13 7.95 54.59 8.12 55.00 8.46C55.41 8.80 55.68 9.23 55.79 9.76ZM59.42 13.30L59.42 12.25C59.47 12.32 59.53 12.39 59.59 12.46C60.17 13.11 60.89 13.44 61.74 13.44C62.59 13.44 63.31 13.11 63.89 12.46C64.45 11.83 64.74 11.08 64.74 10.22C64.74 9.36 64.45 8.61 63.89 7.98C63.31 7.33 62.59 7.00 61.74 7.00C60.89 7.00 60.17 7.33 59.59 7.98C59.53 8.05 59.47 8.12 59.42 8.19L59.42 2.80L58.44 2.80L58.44 13.30ZM63.76 10.22C63.76 10.82 63.55 11.34 63.13 11.79C62.72 12.24 62.20 12.46 61.59 12.46C60.97 12.46 60.46 12.24 60.04 11.79C59.62 11.34 59.42 10.82 59.42 10.22C59.42 9.62 59.62 9.10 60.04 8.65C60.46 8.20 60.97 7.98 61.59 7.98C62.20 7.98 62.72 8.20 63.13 8.65C63.55 9.10 63.76 9.62 63.76 10.22Z"></path></g><!----><!----></svg>